<?xml version="1.0" encoding="utf-8"?>
<!-- Svg Vector Icons : http://www.onlinewebfonts.com/icon -->
<!DOCTYPE svg PUBLIC "-//W3C//DTD SVG 1.1//EN" "http://www.w3.org/Graphics/SVG/1.1/DTD/svg11.dtd">
<svg version="1.1" xmlns="http://www.w3.org/2000/svg" xmlns:xlink="http://www.w3.org/1999/xlink" x="0px" y="0px" viewBox="0 0 1000 1000" fill="#FFFFFF" enable-background="new 0 0 1000 1000" xml:space="preserve">
<metadata> Svg Vector Icons : http://www.onlinewebfonts.com/icon </metadata>
<g><g transform="translate(0.000000,511.000000) scale(0.100000,-0.100000)"><path d="M4565.7,4990.4c-1068.4-95.1-1853.4-578.8-2081.4-1280.5c-116.9-358.8-261.7-557-557-757.2c-103.1-71.4-231.9-164.5-287.4-208.1l-103.1-81.3l-91.2-297.3c-140.7-465.8-265.6-911.8-321.1-1159.6c-43.6-192.3-49.6-259.7-41.6-426.2c13.9-247.8,79.3-487.6,212.1-757.2c85.2-170.5,118.9-218,222-307.2c180.4-154.6,388.5-364.7,418.2-428.2c15.9-29.7,43.6-132.8,61.5-231.9c19.8-97.1,73.3-337,122.9-529.3c93.2-372.7,113-588.7,61.5-660.1c-23.8-29.7-43.6-33.7-115-21.8c-229.9,37.7-267.6,35.7-360.8-3.9c-105.1-45.6-180.4-146.7-210.1-281.5c-25.8-111-27.7-346.9-4-430.2c37.7-126.8,777-1145.7,1030.8-1417.3c337-360.8,553-339,880.1,89.2c77.3,103.1,136.8,136.8,241.8,136.8c99.1,0,128.8-15.9,376.6-212.1c200.2-158.6,564.9-398.4,697.8-461.9c97.1-45.6,140.7-53.5,283.5-53.5c140.8,0,186.3,7.9,277.5,51.5c130.8,61.5,501.5,309.2,735.4,493.6c210.1,164.5,237.9,180.4,333,182.4c113,2,182.3-45.6,305.3-210.1c192.3-255.7,364.7-321.1,576.8-220c152.6,73.4,390.5,344.9,806.7,921.8c406.4,562.9,459.9,648.2,477.7,771.1c33.7,235.9-23.8,477.7-140.8,582.8c-95.1,87.2-194.3,105.1-380.6,71.4c-124.9-21.8-142.7-21.8-172.5,9.9c-57.5,57.5-41.6,295.4,41.6,606.6c39.6,146.7,95.1,384.5,122.9,525.3c59.5,297.3,83.3,338.9,293.4,533.2c79.3,73.4,184.3,170.5,233.9,218C8694.7-84.2,8885,399.5,8916.7,774.1c19.8,216.1-43.6,495.6-331,1470.8l-122.9,414.3l-111,87.2c-59.5,47.6-170.5,126.9-247.8,178.4c-291.4,190.3-479.7,430.1-574.8,731.4c-29.7,97.1-81.3,226-113,285.4C7001.9,4695,5883.9,5107.3,4565.7,4990.4z M3757,2792.1c430.1-49.6,618.5-216.1,614.5-547.1c-6-366.7-301.3-894-761.2-1353.9c-448-450-905.9-693.8-1254.8-672c-235.9,15.8-341,107-422.2,376.6c-212.1,683.9,19.8,1688.9,450,1962.4c178.4,111,713.6,228,1151.7,251.7C3562.7,2809.9,3661.8,2802,3757,2792.1z M6845.3,2770.2c263.6-35.7,640.3-134.8,749.3-196.2c354.8-204.2,600.6-927.7,539.2-1587.8c-27.8-285.4-67.4-446-146.7-576.8c-81.3-134.8-158.6-178.4-337-190.3c-182.4-9.9-344.9,31.7-570.9,148.7c-590.7,303.3-1209.2,1005-1399.5,1585.8C5461.7,2613.7,5874,2903.1,6845.3,2770.2z M5485.5-60.4C6056.4-217,6542-649.1,6750.2-1188.3c430.1-1102.1-222-2303.4-1381.6-2543.2c-1003-208.1-2004,455.9-2214.2,1468.8c-51.5,245.8-41.6,648.2,23.8,870.2C3374.4-702.6,3913.6-193.2,4605.4-40.6C4835.3,11,5259.5,1.1,5485.5-60.4z"/><path d="M4763.9-302.2C3697.5-464.7,3089-1634.3,3572.6-2593.7c275.5-551.1,812.7-882.1,1429.2-882.1c432.1,0,781,138.8,1098.2,438.1c325.1,309.2,489.6,695.8,489.6,1151.7c2,281.5-43.6,471.8-170.5,723.5c-200.2,400.4-586.8,713.6-1012.9,822.6C5221.9-292.3,4938.4-276.4,4763.9-302.2z M5140.6-641.2c120.9-61.4,182.4-170.5,172.5-299.3c-25.8-311.2-436.1-400.4-588.7-128.8c-53.5,95.1-47.6,245.8,13.9,329c45.6,63.4,192.3,142.7,263.6,142.7C5029.6-597.6,5093-617.4,5140.6-641.2z M5213.9-1580.8c91.2-71.3,164.5-210.1,164.5-305.3c0-37.7-17.8-105-37.7-148.7c-118.9-259.7-438.1-301.3-630.4-83.3c-150.6,172.5-91.2,461.9,117,566.9C4952.3-1487.6,5112.8-1499.5,5213.9-1580.8z M4189.1-1610.5c41.6-23.8,93.2-75.3,116.9-116.9c152.6-271.6-136.8-578.8-412.3-438.1c-184.4,95.2-229.9,319.1-97.1,489.6C3883.8-1566.9,4058.3-1537.2,4189.1-1610.5z M6157.5-1634.3c85.2-63.4,142.7-202.2,124.9-295.4c-31.7-170.5-182.3-285.4-344.9-267.6c-295.4,33.7-388.5,426.2-134.8,580.8C5911.7-1551,6056.4-1557,6157.5-1634.3z M5160.4-2583.8c152.6-105.1,194.3-257.7,115-412.3c-49.6-95.2-176.4-178.4-273.5-178.4c-71.4,0-218,79.3-263.6,142.7c-21.8,27.8-43.6,97.1-49.6,152.6c-17.8,190.3,118.9,337,315.2,339C5067.2-2540.2,5114.8-2554,5160.4-2583.8z"/></g></g>
</svg>